<?xml version="1.0" encoding="UTF-8" standalone="no"?><!DOCTYPE svg PUBLIC "-//W3C//DTD SVG 1.1//EN" "http://www.w3.org/Graphics/SVG/1.1/DTD/svg11.dtd"><svg width="100%" height="100%" viewBox="0 0 512 512" version="1.1" xmlns="http://www.w3.org/2000/svg" xmlns:xlink="http://www.w3.org/1999/xlink" xml:space="preserve" xmlns:serif="http://www.serif.com/" style="fill-rule:evenodd;clip-rule:evenodd;stroke-linejoin:round;stroke-miterlimit:2;"><g id="_01d" serif:id="01d"><path d="M256,400c-79.402,0 -144,-64.598 -144,-144c0,-79.402 64.598,-144 144,-144c79.402,0 144,64.598 144,144c0,79.402 -64.598,144 -144,144Zm0,-256c-61.757,0 -112,50.243 -112,112c0,61.757 50.243,112 112,112c61.757,0 112,-50.243 112,-112c0,-61.757 -50.243,-112 -112,-112Z" style="fill:#ffbf07;fill-rule:nonzero;"/><path d="M256,80c-8.837,0 -16,-7.164 -16,-16l0,-48c0,-8.836 7.163,-16 16,-16c8.837,0 16,7.164 16,16l0,48c0,8.836 -7.163,16 -16,16Z" style="fill:#ffbf07;fill-rule:nonzero;"/><path d="M256,512c-8.837,0 -16,-7.164 -16,-16l0,-48c0,-8.836 7.163,-16 16,-16c8.837,0 16,7.164 16,16l0,48c0,8.836 -7.163,16 -16,16Z" style="fill:#ffbf07;fill-rule:nonzero;"/><path d="M496,272l-48,0c-8.837,0 -16,-7.164 -16,-16c0,-8.836 7.163,-16 16,-16l48,0c8.837,0 16,7.164 16,16c0,8.836 -7.163,16 -16,16Z" style="fill:#ffbf07;fill-rule:nonzero;"/><path d="M64,272l-48,0c-8.837,0 -16,-7.164 -16,-16c0,-8.836 7.163,-16 16,-16l48,0c8.837,0 16,7.164 16,16c0,8.836 -7.163,16 -16,16Z" style="fill:#ffbf07;fill-rule:nonzero;"/><path d="M391.765,136.235c-14.126,0 -21.422,-17.206 -11.313,-27.314l33.941,-33.941c6.249,-6.248 16.38,-6.249 22.627,0c6.249,6.248 6.249,16.379 0,22.627l-33.941,33.941c-3.125,3.125 -7.22,4.687 -11.314,4.687Z" style="fill:#ffbf07;fill-rule:nonzero;"/><path d="M86.294,441.706c-14.126,0 -21.422,-17.206 -11.313,-27.314l33.941,-33.941c6.25,-6.248 16.381,-6.248 22.627,0c6.249,6.248 6.249,16.379 0,22.627l-33.942,33.942c-3.124,3.123 -7.218,4.686 -11.313,4.686Z" style="fill:#ffbf07;fill-rule:nonzero;"/><path d="M425.706,441.706c-4.095,0 -8.189,-1.562 -11.313,-4.686l-33.941,-33.941c-6.249,-6.249 -6.249,-16.379 0,-22.627c6.248,-6.249 16.379,-6.249 22.627,0l33.941,33.941c10.108,10.106 2.812,27.313 -11.314,27.313Z" style="fill:#ffbf07;fill-rule:nonzero;"/><path d="M120.235,136.235c-4.095,0 -8.189,-1.562 -11.313,-4.686l-33.942,-33.941c-6.249,-6.249 -6.249,-16.379 0,-22.627c6.248,-6.249 16.379,-6.249 22.627,0l33.941,33.941c10.109,10.107 2.813,27.313 -11.313,27.313Z" style="fill:#ffbf07;fill-rule:nonzero;"/></g></svg>