<?xml version="1.0" encoding="UTF-8" standalone="no"?><!DOCTYPE svg PUBLIC "-//W3C//DTD SVG 1.1//EN" "http://www.w3.org/Graphics/SVG/1.1/DTD/svg11.dtd"><svg width="100%" height="100%" viewBox="0 0 512 512" version="1.1" xmlns="http://www.w3.org/2000/svg" xmlns:xlink="http://www.w3.org/1999/xlink" xml:space="preserve" xmlns:serif="http://www.serif.com/" style="fill-rule:evenodd;clip-rule:evenodd;stroke-linejoin:round;stroke-miterlimit:2;"><g><path d="M256,512c-141.485,0 -256,-114.495 -256,-256c0,-138.939 109.916,-249.944 244.802,-255.755c7.171,-0.301 13.667,4.193 15.896,11.014c2.229,6.821 -0.354,14.292 -6.321,18.277c-49.077,32.777 -78.377,87.531 -78.377,146.464c0,97.047 78.953,176 176,176c48.132,0 93.063,-19.057 126.517,-53.661c4.99,-5.162 12.807,-6.367 19.119,-2.951c6.313,3.417 9.578,10.619 7.986,17.619c-26.125,114.892 -128.935,198.993 -249.622,198.993Zm-61.935,-471.396c-94.122,26.801 -162.065,113.147 -162.065,215.396c0,123.514 100.486,224 224,224c87.19,0 163.771,-49.093 200.76,-124.172c-31.408,18.385 -67.263,28.172 -104.76,28.172c-114.691,0 -208,-93.309 -208,-208c0,-50.369 18.109,-98.153 50.065,-135.396Z" style="fill:#ffbf07;fill-rule:nonzero;"/></g></svg>