<?xml version="1.0" encoding="UTF-8" standalone="no"?><!DOCTYPE svg PUBLIC "-//W3C//DTD SVG 1.1//EN" "http://www.w3.org/Graphics/SVG/1.1/DTD/svg11.dtd"><svg width="100%" height="100%" viewBox="0 0 512 512" version="1.1" xmlns="http://www.w3.org/2000/svg" xmlns:xlink="http://www.w3.org/1999/xlink" xml:space="preserve" xmlns:serif="http://www.serif.com/" style="fill-rule:evenodd;clip-rule:evenodd;stroke-linejoin:round;stroke-miterlimit:2;"><g><path d="M406,333.567c0,-18.481 -5.469,-35.767 -15.494,-50.458c25.653,-19.303 41.494,-49.706 41.494,-83.109c0,-57.346 -46.654,-104 -104,-104c-53.716,0 -98.049,40.935 -103.447,93.248c-69.742,-21.265 -140.476,29.275 -143.769,101.357c-46.472,10.59 -80.784,52.146 -80.784,101.395c0,57.346 46.654,104 104,104l286,0c45.215,0 82,-36.785 82,-82c0,-39.743 -28.417,-72.972 -66,-80.433Zm-78,-205.567c39.701,0 72,32.299 72,72c0,24.2 -12.42,46.841 -32.302,60.054c-22.038,-15.394 -49.64,-19.959 -75.416,-12.651c-7.891,-16.275 -20.004,-31.223 -36.113,-42.622c-2.739,-41.921 30.608,-76.781 71.831,-76.781Zm62,336l-286,0c-39.701,0 -72,-32.299 -72,-72c0,-37.344 29.121,-68.872 66.296,-71.776c8.858,-0.691 15.478,-8.485 14.691,-17.365c-4.14,-46.597 32.638,-86.442 79.013,-86.442c34.666,0 65.891,23.147 75.933,56.289c2.897,9.559 13.749,14.146 22.617,9.596c42.081,-21.59 91.969,14.913 82.3,62.517c-2.005,9.873 5.535,19.181 15.68,19.181c30.765,0 51.47,23.676 51.47,50c0,27.57 -22.43,50 -50,50Z" style="fill:#ffbf07;fill-rule:nonzero;"/><path d="M328,80c8.837,0 16,-7.164 16,-16l0,-32c0,-8.836 -7.163,-16 -16,-16c-8.837,0 -16,7.164 -16,16l0,32c0,8.836 7.163,16 16,16Z" style="fill:#ffbf07;fill-rule:nonzero;"/><path d="M496,184l-32,0c-8.837,0 -16,7.164 -16,16c0,8.836 7.163,16 16,16l32,0c8.837,0 16,-7.164 16,-16c0,-8.836 -7.163,-16 -16,-16Z" style="fill:#ffbf07;fill-rule:nonzero;"/><path d="M412.854,284.853c-6.249,6.249 -6.249,16.379 0,22.627l22.627,22.627c6.248,6.249 16.378,6.249 22.627,0c6.249,-6.249 6.249,-16.379 0,-22.627l-22.627,-22.627c-6.248,-6.248 -16.378,-6.248 -22.627,0Z" style="fill:#ffbf07;fill-rule:nonzero;"/><path d="M220.52,115.147c6.248,6.249 16.378,6.249 22.627,0c6.249,-6.249 6.249,-16.379 0,-22.627l-22.627,-22.627c-6.246,-6.248 -16.377,-6.248 -22.627,0c-6.249,6.249 -6.249,16.379 0,22.627l22.627,22.627Z" style="fill:#ffbf07;fill-rule:nonzero;"/><path d="M424.167,119.833c4.095,0 8.189,-1.562 11.313,-4.687l22.627,-22.627c6.249,-6.249 6.249,-16.379 -0,-22.627c-6.248,-6.248 -16.379,-6.249 -22.627,0l-22.626,22.628c-10.11,10.109 -2.813,27.313 11.313,27.313Z" style="fill:#ffbf07;fill-rule:nonzero;"/></g></svg>