<?xml version="1.0" encoding="UTF-8" standalone="no"?><!DOCTYPE svg PUBLIC "-//W3C//DTD SVG 1.1//EN" "http://www.w3.org/Graphics/SVG/1.1/DTD/svg11.dtd"><svg width="100%" height="100%" viewBox="0 0 512 512" version="1.1" xmlns="http://www.w3.org/2000/svg" xmlns:xlink="http://www.w3.org/1999/xlink" xml:space="preserve" xmlns:serif="http://www.serif.com/" style="fill-rule:evenodd;clip-rule:evenodd;stroke-linejoin:round;stroke-miterlimit:2;"><g><path d="M503.617,179.299c-6.309,-3.413 -14.121,-2.207 -19.107,2.953c-17.005,17.599 -39.853,27.292 -64.335,27.292c-49.354,-0 -89.506,-40.152 -89.506,-89.506c0,-29.972 14.905,-57.818 39.871,-74.489c5.964,-3.982 8.548,-11.449 6.32,-18.265c-2.228,-6.815 -8.725,-11.311 -15.886,-11.008c-88.18,3.794 -153.992,83.928 -139.4,172.073c-69.427,-19.135 -137.616,31.598 -140.839,102.121c-46.455,10.588 -80.735,52.122 -80.735,101.333c-0,57.311 46.626,103.937 103.937,103.937l285.826,-0c45.188,-0 81.95,-36.763 81.95,-81.95c0,-39.719 -28.399,-72.928 -65.959,-80.385c0.052,-8.298 -1.159,-17.128 -3.686,-25.631c53.185,-12.697 96.826,-54.949 109.533,-110.867c1.59,-6.996 -1.674,-14.195 -7.984,-17.608Zm-63.884,234.491c-0,27.553 -22.416,49.969 -49.97,49.969l-285.826,0c-39.677,0 -71.956,-32.279 -71.956,-71.956c-0,-37.321 29.103,-68.83 66.255,-71.732c8.852,-0.691 15.47,-8.481 14.682,-17.355c-4.134,-46.565 32.611,-86.389 78.964,-86.389c34.645,-0 65.85,23.133 75.887,56.254c2.89,9.536 13.725,14.144 22.604,9.59c42.369,-21.738 91.84,15.235 82.251,62.479c-2.007,9.888 5.552,19.171 15.67,19.171c30.747,-0.001 51.439,23.66 51.439,49.969Zm-52.917,-135.537c-22.417,-28.65 -59.676,-40.894 -94.711,-30.96c-7.453,-15.372 -18.462,-29.036 -32.003,-39.568c-22.274,-54.522 -0.027,-118.711 53.821,-146.64c-9.856,17.758 -15.235,37.971 -15.235,58.951c-0,82.658 81.401,141.667 160.286,115.208c-17.478,22.514 -43.01,38.139 -72.158,43.009Z" style="fill:#ffbf07;fill-rule:nonzero;"/></g></svg>