<?xml version="1.0" encoding="UTF-8" standalone="no"?><!DOCTYPE svg PUBLIC "-//W3C//DTD SVG 1.1//EN" "http://www.w3.org/Graphics/SVG/1.1/DTD/svg11.dtd"><svg width="100%" height="100%" viewBox="0 0 512 512" version="1.1" xmlns="http://www.w3.org/2000/svg" xmlns:xlink="http://www.w3.org/1999/xlink" xml:space="preserve" xmlns:serif="http://www.serif.com/" style="fill-rule:evenodd;clip-rule:evenodd;stroke-linejoin:round;stroke-miterlimit:2;"><g><path d="M424,424.5l-312,0c-61.757,0 -112,-50.243 -112,-112c0,-53.88 37.943,-98.533 88.081,-109.436c2.343,-64.12 55.237,-115.564 119.919,-115.564c48.54,0 89.514,28.544 108.62,68.999c62.24,-18.504 124.343,28.942 123.369,93.457c40.917,7.54 72.011,43.479 72.011,86.544c0,48.523 -39.477,88 -88,88Zm-216,-305c-51.437,0 -92.228,44.178 -87.644,95.885c0.784,8.851 -5.806,16.67 -14.691,17.363c-41.308,3.228 -73.665,38.259 -73.665,79.752c0,44.112 35.888,80 80,80l312,0c30.878,0 56,-25.122 56,-56c0,-29.061 -22.745,-56 -57.604,-56c-10.096,0 -17.694,-9.263 -15.68,-19.184c10.684,-52.596 -44.419,-94.131 -91.872,-69.782c-8.871,4.551 -19.722,-0.04 -22.617,-9.596c-11.139,-36.762 -45.775,-62.438 -84.227,-62.438Z" style="fill:#ffbf07;fill-rule:nonzero;"/></g></svg>