<?xml version="1.0" encoding="UTF-8" standalone="no"?><!DOCTYPE svg PUBLIC "-//W3C//DTD SVG 1.1//EN" "http://www.w3.org/Graphics/SVG/1.1/DTD/svg11.dtd"><svg width="100%" height="100%" viewBox="0 0 512 512" version="1.1" xmlns="http://www.w3.org/2000/svg" xmlns:xlink="http://www.w3.org/1999/xlink" xml:space="preserve" xmlns:serif="http://www.serif.com/" style="fill-rule:evenodd;clip-rule:evenodd;stroke-linejoin:round;stroke-miterlimit:2;"><g><path d="M423.672,336.341l-311.39,0c-61.636,0 -111.781,-50.145 -111.781,-111.781c0,-53.775 37.869,-98.34 87.909,-109.222c2.338,-63.995 55.129,-115.338 119.684,-115.338c48.445,0 89.339,28.488 108.408,68.864c62.118,-18.468 124.1,28.886 123.128,93.274c40.837,7.527 71.87,43.394 71.87,86.375c-0,48.428 -39.4,87.828 -87.828,87.828Zm-215.578,-304.404c-51.336,0 -92.047,44.092 -87.472,95.698c0.782,8.834 -5.795,16.637 -14.663,17.329c-41.227,3.222 -73.521,38.184 -73.521,79.596c0,44.026 35.818,79.844 79.844,79.844l311.39,-0c30.818,-0 55.891,-25.073 55.891,-55.891c-0,-29.004 -22.701,-55.89 -57.492,-55.89c-10.076,-0 -17.659,-9.245 -15.649,-19.147c10.663,-52.493 -44.332,-93.947 -91.693,-69.645c-8.854,4.543 -19.683,-0.041 -22.572,-9.578c-11.118,-36.69 -45.686,-62.316 -84.063,-62.316Z" style="fill:#ffbf07;fill-rule:nonzero;"/><path d="M311.879,456.109c-11.735,0 -19.614,-12.428 -14.271,-23.113l31.937,-63.875c3.945,-7.889 13.538,-11.085 21.424,-7.142c7.889,3.944 11.086,13.536 7.142,21.424l-31.937,63.875c-2.797,5.597 -8.438,8.831 -14.295,8.831Z" style="fill:#ffbf07;fill-rule:nonzero;"/><path d="M455.597,456.109c-11.735,0 -19.613,-12.428 -14.271,-23.113l31.938,-63.875c3.944,-7.889 13.536,-11.085 21.424,-7.142c7.888,3.944 11.085,13.536 7.142,21.424l-31.938,63.875c-2.797,5.597 -8.438,8.831 -14.295,8.831Z" style="fill:#ffbf07;fill-rule:nonzero;"/><path d="M168.161,456.109c-11.735,0 -19.614,-12.428 -14.271,-23.113l31.937,-63.875c3.943,-7.889 13.537,-11.085 21.424,-7.142c7.889,3.944 11.085,13.536 7.142,21.424l-31.937,63.875c-2.798,5.597 -8.439,8.831 -14.295,8.831Z" style="fill:#ffbf07;fill-rule:nonzero;"/><path d="M24.442,456.109c-11.735,0 -19.613,-12.428 -14.271,-23.113l31.938,-63.875c3.943,-7.889 13.537,-11.085 21.424,-7.142c7.888,3.944 11.085,13.536 7.142,21.424l-31.938,63.875c-2.797,5.597 -8.438,8.831 -14.295,8.831Z" style="fill:#ffbf07;fill-rule:nonzero;"/><path d="M216.067,512c-11.735,0 -19.614,-12.429 -14.271,-23.114l31.937,-63.875c3.944,-7.888 13.537,-11.085 21.424,-7.142c7.889,3.945 11.085,13.537 7.142,21.424l-31.937,63.875c-2.798,5.597 -8.439,8.832 -14.295,8.832Z" style="fill:#ffbf07;fill-rule:nonzero;"/><path d="M359.785,512c-11.735,0 -19.613,-12.429 -14.271,-23.114l31.938,-63.875c3.944,-7.888 13.536,-11.085 21.424,-7.142c7.888,3.945 11.085,13.537 7.142,21.424l-31.938,63.875c-2.797,5.597 -8.438,8.832 -14.295,8.832Z" style="fill:#ffbf07;fill-rule:nonzero;"/><path d="M72.348,512c-11.735,0 -19.613,-12.429 -14.271,-23.114l31.938,-63.875c3.944,-7.888 13.536,-11.085 21.424,-7.142c7.888,3.945 11.085,13.537 7.142,21.424l-31.938,63.875c-2.797,5.597 -8.438,8.832 -14.295,8.832Z" style="fill:#ffbf07;fill-rule:nonzero;"/></g></svg>