<?xml version="1.0" encoding="UTF-8" standalone="no"?><!DOCTYPE svg PUBLIC "-//W3C//DTD SVG 1.1//EN" "http://www.w3.org/Graphics/SVG/1.1/DTD/svg11.dtd"><svg width="100%" height="100%" viewBox="0 0 512 512" version="1.1" xmlns="http://www.w3.org/2000/svg" xmlns:xlink="http://www.w3.org/1999/xlink" xml:space="preserve" xmlns:serif="http://www.serif.com/" style="fill-rule:evenodd;clip-rule:evenodd;stroke-linejoin:round;stroke-miterlimit:2;"><g><path d="M439.63,162.139c0.967,-64.094 -60.699,-111.834 -123.128,-93.275c-19.066,-40.369 -59.955,-68.864 -108.408,-68.864c-64.556,0 -117.347,51.344 -119.686,115.339c-50.102,10.895 -87.909,55.513 -87.909,109.222c0,61.637 50.145,111.782 111.782,111.782l311.392,0c48.428,0 87.828,-39.4 87.828,-87.828c-0,-42.981 -31.033,-78.85 -71.871,-86.376Zm-15.957,142.266l-311.392,0c-44.026,0 -79.844,-35.818 -79.844,-79.844c-0,-41.412 32.294,-76.374 73.521,-79.595c8.84,-0.69 15.447,-8.469 14.662,-17.329c-4.57,-51.557 36.091,-95.699 87.474,-95.699c38.377,-0 72.945,25.626 84.063,62.316c2.886,9.522 13.707,14.126 22.573,9.577c46.848,-24.038 102.475,16.567 91.693,69.646c-2.004,9.875 5.544,19.147 15.65,19.147c34.64,-0 57.491,26.728 57.491,55.891c-0.001,30.817 -25.074,55.89 -55.891,55.89Z" style="fill:#ffbf07;fill-rule:nonzero;"/><path d="M256,360.296c-8.819,0 -15.969,7.15 -15.969,15.969l0,31.938c0,8.819 7.15,15.969 15.969,15.969c8.819,-0 15.969,-7.15 15.969,-15.969l-0,-31.938c-0,-8.819 -7.15,-15.969 -15.969,-15.969Z" style="fill:#ffbf07;fill-rule:nonzero;"/><path d="M383.75,360.296c-8.818,0 -15.968,7.15 -15.968,15.969l-0,31.938c-0,8.819 7.15,15.969 15.968,15.969c8.819,-0 15.969,-7.15 15.969,-15.969l0,-31.938c0,-8.819 -7.15,-15.969 -15.969,-15.969Z" style="fill:#ffbf07;fill-rule:nonzero;"/><path d="M128.25,360.296c-8.819,0 -15.969,7.15 -15.969,15.969l-0,31.938c-0,8.819 7.15,15.969 15.969,15.969c8.818,-0 15.968,-7.15 15.968,-15.969l0,-31.938c0,-8.819 -7.15,-15.969 -15.968,-15.969Z" style="fill:#ffbf07;fill-rule:nonzero;"/><path d="M192.125,448.125c-8.819,-0 -15.969,7.15 -15.969,15.969l-0,31.937c-0,8.819 7.15,15.969 15.969,15.969c8.819,0 15.969,-7.15 15.969,-15.969l-0,-31.937c-0,-8.819 -7.15,-15.969 -15.969,-15.969Z" style="fill:#ffbf07;fill-rule:nonzero;"/><path d="M319.875,448.125c-8.819,-0 -15.969,7.15 -15.969,15.969l0,31.937c0,8.819 7.15,15.969 15.969,15.969c8.819,0 15.969,-7.15 15.969,-15.969l0,-31.937c0,-8.819 -7.15,-15.969 -15.969,-15.969Z" style="fill:#ffbf07;fill-rule:nonzero;"/><path d="M447.626,448.125c-8.819,-0 -15.969,7.15 -15.969,15.969l-0,31.937c-0,8.819 7.15,15.969 15.969,15.969c8.819,0 15.969,-7.15 15.969,-15.969l-0,-31.937c-0,-8.819 -7.15,-15.969 -15.969,-15.969Z" style="fill:#ffbf07;fill-rule:nonzero;"/><path d="M64.374,448.125c-8.819,-0 -15.969,7.15 -15.969,15.969l0,31.937c0,8.819 7.15,15.969 15.969,15.969c8.819,0 15.969,-7.15 15.969,-15.969l0,-31.937c0,-8.819 -7.15,-15.969 -15.969,-15.969Z" style="fill:#ffbf07;fill-rule:nonzero;"/></g></svg>