<?xml version="1.0" encoding="UTF-8" standalone="no"?><!DOCTYPE svg PUBLIC "-//W3C//DTD SVG 1.1//EN" "http://www.w3.org/Graphics/SVG/1.1/DTD/svg11.dtd"><svg width="100%" height="100%" viewBox="0 0 512 512" version="1.1" xmlns="http://www.w3.org/2000/svg" xmlns:xlink="http://www.w3.org/1999/xlink" xml:space="preserve" xmlns:serif="http://www.serif.com/" style="fill-rule:evenodd;clip-rule:evenodd;stroke-linejoin:round;stroke-miterlimit:2;"><g><path d="M439.64,162.123c0.922,-64.686 -61.403,-111.744 -123.143,-93.289c-19.104,-40.429 -60.038,-68.834 -108.393,-68.834c-64.556,0 -117.346,51.346 -119.685,115.34c-85.038,18.486 -118.24,125.224 -55.17,188.256c21.105,21.117 49.176,32.746 79.042,32.746l55.847,0l-21.96,40.26c-5.792,10.619 1.902,23.616 14.019,23.616l79.844,-0l-0,95.812c-0,7.3 4.949,13.67 12.022,15.474c7.025,1.792 14.447,-1.377 17.964,-7.827l91.276,-167.335l62.38,0c48.428,0 87.828,-39.4 87.828,-87.828c-0,-43.387 -31.314,-78.986 -71.871,-86.391Zm-167.661,271.283l0,-49.157c0,-8.819 -7.149,-15.969 -15.969,-15.969l-68.912,-0c9.663,-17.716 39.189,-71.846 52.944,-97.063l-0,49.157c-0,8.818 7.15,15.968 15.968,15.968l68.913,0l-52.944,97.064Zm151.704,-129.001l-151.704,-0l0,-95.813c0,-7.3 -4.949,-13.67 -12.023,-15.474c-7.073,-1.802 -14.469,1.42 -17.964,7.827l-56.433,103.46l-73.268,-0c-44.115,-0 -79.843,-35.699 -79.843,-79.844c-0,-41.415 32.293,-76.377 73.521,-79.593c8.838,-0.691 15.444,-8.462 14.665,-17.321c-4.575,-52.008 36.482,-95.709 87.47,-95.709c38.378,-0 72.947,25.625 84.064,62.317c2.889,9.538 13.718,14.116 22.569,9.579c47.334,-24.272 102.365,17.099 91.7,69.643c-2.002,9.857 5.524,19.146 15.65,19.146c34.854,0 57.487,26.792 57.487,55.891c-0.001,30.818 -25.073,55.891 -55.891,55.891Z" style="fill:#ffbf07;fill-rule:nonzero;"/></g></svg>