<?xml version="1.0" encoding="UTF-8" standalone="no"?><!DOCTYPE svg PUBLIC "-//W3C//DTD SVG 1.1//EN" "http://www.w3.org/Graphics/SVG/1.1/DTD/svg11.dtd"><svg width="100%" height="100%" viewBox="0 0 512 512" version="1.1" xmlns="http://www.w3.org/2000/svg" xmlns:xlink="http://www.w3.org/1999/xlink" xml:space="preserve" xmlns:serif="http://www.serif.com/" style="fill-rule:evenodd;clip-rule:evenodd;stroke-linejoin:round;stroke-miterlimit:2;"><g><path d="M433.88,340.285l-32.608,-18.827l39.188,-10.5c8.535,-2.287 13.601,-11.06 11.313,-19.596c-2.288,-8.535 -11.05,-13.601 -19.597,-11.313l-70.095,18.782l-37.387,-21.586c4.274,-13.813 4.312,-28.85 -0.137,-42.916l37.518,-21.66c75.736,20.293 71.251,19.333 74.253,19.333c7.064,0 13.529,-4.715 15.445,-11.863c2.287,-8.536 -2.778,-17.309 -11.313,-19.596l-39.192,-10.501l32.611,-18.827c5.006,2.881 10.592,4.299 16.06,4.299c24.35,0 40.012,-26.62 27.661,-48.014c-8.842,-15.316 -28.392,-20.556 -43.714,-11.712c-10.233,5.909 -15.96,16.656 -15.983,27.701l-32.627,18.837l10.499,-39.181c2.287,-8.536 -2.778,-17.309 -11.314,-19.596c-8.533,-2.288 -17.308,2.778 -19.596,11.313l-18.78,70.09l-37.744,21.791c-9.644,-10.261 -22.249,-17.693 -36.442,-20.928l0,-44.185l51.314,-51.314c6.249,-6.248 6.249,-16.379 0,-22.627c-6.248,-6.249 -16.379,-6.249 -22.627,0l-28.688,28.687l0,-36.68c9.555,-5.542 16,-15.876 16,-27.695c0,-17.645 -14.355,-32 -32,-32c-17.645,0 -32,14.355 -32,32c0,11.818 6.445,22.153 16,27.695l0,36.678l-28.688,-28.686c-6.248,-6.249 -16.379,-6.249 -22.627,0c-6.249,6.248 -6.249,16.379 0,22.627l51.313,51.313l0,44.187c-14.345,3.269 -27.071,10.823 -36.753,21.254l-38.294,-22.11l-18.783,-70.097c-2.287,-8.535 -11.058,-13.601 -19.597,-11.313c-8.535,2.287 -13.601,11.061 -11.313,19.596l10.5,39.186l-31.765,-18.341c-0.043,-20.916 -19.784,-36.388 -40.267,-30.898c-27.471,7.361 -32.24,44.463 -7.718,58.623c10.322,5.959 22.448,5.502 32.008,0.002l31.743,18.328l-39.187,10.5c-8.536,2.287 -13.602,11.06 -11.314,19.596c2.277,8.494 11.019,13.612 19.596,11.313l70.095,-18.782l38.251,22.085c-4.146,13.398 -4.351,28.088 -0.122,42.061l-38.128,22.013l-70.097,-18.782c-8.53,-2.29 -17.308,2.778 -19.596,11.313c-2.287,8.536 2.778,17.309 11.314,19.596l39.187,10.5l-31.744,18.327c-9.612,-5.53 -21.733,-5.927 -32.008,0.003c-24.535,14.167 -19.741,51.264 7.719,58.622c20.384,5.462 40.224,-9.916 40.267,-30.899l31.765,-18.34l-10.5,39.186c-2.287,8.535 2.778,17.309 11.313,19.596c8.573,2.298 17.319,-2.816 19.597,-11.313l18.783,-70.096l37.988,-21.933c9.719,10.599 22.566,18.272 37.059,21.575l0,43.189l-51.313,51.313c-6.249,6.248 -6.249,16.379 0,22.627c6.248,6.249 16.379,6.249 22.627,0l28.686,-28.685l0,37.676c-9.555,5.542 -16,15.876 -16,27.695c0,17.645 14.355,32 32,32c17.645,0 32,-14.355 32,-32c0,-11.818 -6.445,-22.153 -16,-27.695l0,-37.678l28.688,28.687c3.124,3.125 7.219,4.687 11.313,4.687c14.125,0 21.424,-17.205 11.313,-27.313l-51.314,-51.314l0,-43.187c14.345,-3.269 27.071,-10.823 36.753,-21.254l37.432,21.612l18.782,70.096c1.916,7.148 8.38,11.863 15.445,11.863c10.52,0 18.187,-9.987 15.465,-20.145l-10.5,-39.185l32.628,18.839c0.037,17.988 14.663,32.003 31.932,32.003c10.945,0 21.761,-5.612 27.766,-16.014c16.182,-28.029 -15.236,-60.105 -43.718,-43.718Zm-177.984,-44.285c-22.056,0 -40,-17.944 -40,-40c0,-22.056 17.944,-40 40,-40c22.056,0 40,17.944 40,40c0,22.056 -17.944,40 -40,40Z" style="fill:#ffbf07;fill-rule:nonzero;"/></g></svg>