<?xml version="1.0" encoding="UTF-8" standalone="no"?><!DOCTYPE svg PUBLIC "-//W3C//DTD SVG 1.1//EN" "http://www.w3.org/Graphics/SVG/1.1/DTD/svg11.dtd"><svg width="100%" height="100%" viewBox="0 0 512 512" version="1.1" xmlns="http://www.w3.org/2000/svg" xmlns:xlink="http://www.w3.org/1999/xlink" xml:space="preserve" xmlns:serif="http://www.serif.com/" style="fill-rule:evenodd;clip-rule:evenodd;stroke-linejoin:round;stroke-miterlimit:2;"><g><path d="M112,337l312,0c48.523,0 88,-39.477 88,-88c0,-43.065 -31.094,-79.004 -72.011,-86.544c0.972,-64.387 -60.997,-112 -123.369,-93.457c-19.103,-40.448 -60.072,-68.999 -108.62,-68.999c-64.682,0 -117.576,51.444 -119.919,115.564c-50.2,10.917 -88.081,55.622 -88.081,109.436c0,61.757 50.243,112 112,112Zm-6.335,-191.751c8.857,-0.691 15.477,-8.485 14.691,-17.363c-4.579,-51.657 36.161,-95.886 87.644,-95.886c38.452,0 73.088,25.676 84.228,62.438c2.891,9.542 13.733,14.154 22.617,9.596c47.332,-24.287 102.587,17.034 91.872,69.782c-2.008,9.894 5.555,19.184 15.68,19.184c34.708,0 57.603,26.78 57.603,56c0,30.878 -25.122,56 -56,56l-312,0c-44.112,0 -80,-35.888 -80,-80c0,-41.493 32.357,-76.524 73.665,-79.751Z" style="fill:#ffbf07;fill-rule:nonzero;"/><path d="M496,352c-43.113,0 -44.698,16 -80,16c-35.166,0 -36.902,-16 -80.01,-16c-43.114,0 -44.697,16 -80,16c-34.771,0 -37.212,-16 -79.99,-16c-18.92,0 -30.469,3.314 -39.27,6.556c-8.292,3.054 -12.539,12.252 -9.484,20.544c3.055,8.292 12.251,12.538 20.544,9.484c7.47,-2.751 15.126,-4.584 28.21,-4.584c35.168,0 36.832,16 79.99,16c43.114,0 44.697,-16 80,-16c35.174,0 36.844,16 80.01,16c43.114,0 44.697,-16 80,-16c8.836,0 16,-7.164 16,-16c0,-8.836 -7.164,-16 -16,-16Z" style="fill:#ffbf07;fill-rule:nonzero;"/><path d="M16,384c30.5,0 33.564,10.824 61.781,14.813c8.77,1.235 16.847,-4.871 18.082,-13.604c1.236,-8.75 -4.854,-16.845 -13.604,-18.082c-21.738,-3.071 -29.269,-15.127 -66.259,-15.127c-8.836,0 -16,7.164 -16,16c0,8.836 7.164,16 16,16Z" style="fill:#ffbf07;fill-rule:nonzero;"/><path d="M496,408c-6.932,0 -13.181,0.431 -19.105,1.316c-8.739,1.306 -14.765,9.45 -13.459,18.189c1.308,8.751 9.459,14.762 18.189,13.459c4.341,-0.649 9.043,-0.964 14.375,-0.964c8.836,0 16,-7.164 16,-16c0,-8.836 -7.164,-16 -16,-16Z" style="fill:#ffbf07;fill-rule:nonzero;"/><path d="M416,456c11.078,0 17.248,-8.201 17.003,-16.483c-0.262,-8.833 -7.618,-15.755 -16.467,-15.52c-30.924,0.948 -36.291,-13.569 -71.559,-15.727c-8.823,-0.542 -16.408,6.173 -16.947,14.993c-0.539,8.82 6.173,16.408 14.993,16.947c27.859,1.704 32.866,15.79 72.977,15.79Z" style="fill:#ffbf07;fill-rule:nonzero;"/><path d="M16,440c35.166,0 36.887,16 80,16c43.114,0 44.697,-16 80,-16c35.168,0 36.832,16 79.99,16c11.765,0 21.604,-1.221 30.965,-3.843c8.509,-2.383 13.476,-11.213 11.092,-19.722c-2.383,-8.51 -11.214,-13.474 -19.722,-11.092c-6.473,1.813 -13.57,2.657 -22.335,2.657c-34.771,0 -37.212,-16 -79.99,-16c-43.114,0 -44.697,16 -80,16c-35.166,0 -36.887,-16 -80,-16c-8.836,0 -16,7.164 -16,16c0,8.836 7.164,16 16,16Z" style="fill:#ffbf07;fill-rule:nonzero;"/><path d="M496,464c-43.114,0 -44.697,16 -80,16c-35.166,0 -36.902,-16 -80.01,-16c-40.48,0 -45.018,14.271 -73.654,15.834c-8.514,0.363 -15.301,7.381 -15.301,15.985c0,9.162 7.695,16.468 16.854,15.978c35.746,-1.9 39.184,-15.797 72.101,-15.797c35.174,0 36.844,16 80.01,16c43.114,0 44.697,-16 80,-16c8.836,0 16,-7.164 16,-16c0,-8.836 -7.164,-16 -16,-16Z" style="fill:#ffbf07;fill-rule:nonzero;"/><path d="M204.326,467.159c-8.49,-2.126 -17.755,-3.159 -28.326,-3.159c-43.114,0 -44.697,16 -80,16c-35.165,0 -36.887,-16 -80,-16c-8.836,0 -16,7.164 -16,16c0,8.836 7.164,16 16,16c35.166,0 36.887,16 80,16c43.113,0 44.698,-16 80,-16c8.026,0 14.557,0.699 20.554,2.201c8.569,2.147 17.261,-3.062 19.407,-11.635c2.146,-8.571 -3.063,-17.26 -11.635,-19.407Z" style="fill:#ffbf07;fill-rule:nonzero;"/></g></svg>