<?xml version="1.0" encoding="UTF-8" standalone="no"?><!DOCTYPE svg PUBLIC "-//W3C//DTD SVG 1.1//EN" "http://www.w3.org/Graphics/SVG/1.1/DTD/svg11.dtd"><svg width="100%" height="100%" viewBox="0 0 512 512" version="1.1" xmlns="http://www.w3.org/2000/svg" xmlns:xlink="http://www.w3.org/1999/xlink" xml:space="preserve" xmlns:serif="http://www.serif.com/" style="fill-rule:evenodd;clip-rule:evenodd;stroke-linejoin:round;stroke-miterlimit:2;"><g id="humidity"><path d="M448.621,100.466c-30.822,-39.556 -61.39,-63.98 -62.677,-65c-5.824,-4.62 -14.063,-4.62 -19.888,-0c-17.481,13.866 -44.426,40.868 -65.946,69.264c-46.91,-61.342 -96.068,-99.645 -98.327,-101.391c-5.763,-4.452 -13.804,-4.453 -19.566,-0c-1.858,1.436 -46.028,35.813 -90.711,91.666c-51.729,64.662 -91.506,142.551 -91.506,224.995c0,105.87 86.131,192 192,192c77.779,0 144.606,-46.206 174.736,-112.33c79.229,5.483 145.264,-59.094 145.264,-138.87c0,-51.68 -21.916,-107.123 -63.379,-160.334Zm-256.621,379.534c-88.224,0 -160,-71.776 -160,-160c0,-107.109 79.582,-214.335 160.005,-283.248c17.301,14.817 54.69,49.122 88.936,95.762c-26.879,43.124 -40.941,86.91 -40.941,128.286c0,61.857 39.628,114.41 94.26,132.484c-27.183,52.516 -82.274,86.716 -142.26,86.716Zm184,-112c-57.346,0 -104,-48.09 -104,-107.2c-0,-89.047 76.242,-166.422 104,-191.635c27.768,25.224 104,102.595 104,191.635c-0,59.111 -46.654,107.2 -104,107.2Z" style="fill:#ffbf07;fill-rule:nonzero;"/></g></svg>