<?xml version="1.0" encoding="UTF-8" standalone="no"?><!DOCTYPE svg PUBLIC "-//W3C//DTD SVG 1.1//EN" "http://www.w3.org/Graphics/SVG/1.1/DTD/svg11.dtd"><svg width="100%" height="100%" viewBox="0 0 512 512" version="1.1" xmlns="http://www.w3.org/2000/svg" xmlns:xlink="http://www.w3.org/1999/xlink" xml:space="preserve" xmlns:serif="http://www.serif.com/" style="fill-rule:evenodd;clip-rule:evenodd;stroke-linejoin:round;stroke-miterlimit:2;"><g id="max"><path d="M112,379.35l0,-203.35c0,-8.836 -7.164,-16 -16,-16c-8.836,0 -16,7.164 -16,16l0,203.35c-14.113,6.185 -24,20.281 -24,36.65c0,22.056 17.944,40 40,40c22.056,0 40,-17.944 40,-40c0,-16.369 -9.887,-30.465 -24,-36.65Z" style="fill:#ffbf07;fill-rule:nonzero;"/><path d="M160,344.436l0,-280.436c0,-35.29 -28.71,-64 -64,-64c-35.29,-0 -64,28.71 -64,64l0,280.436c-20.434,18.205 -32,43.858 -32,71.564c0,52.935 43.065,96 96,96c52.935,0 96,-43.065 96,-96c0,-27.706 -11.566,-53.359 -32,-71.564Zm-64,135.564c-35.29,0 -64,-28.71 -64,-64c0,-20.317 9.334,-38.982 25.61,-51.208c4.023,-3.022 6.39,-7.761 6.39,-12.792l0,-288c0,-17.645 14.355,-32 32,-32c17.645,0 32,14.355 32,32l0,287.999c0,5.032 2.367,9.771 6.39,12.792c16.276,12.227 25.61,30.892 25.61,51.209c0,35.29 -28.71,64 -64,64Z" style="fill:#ffbf07;fill-rule:nonzero;"/><path d="M352,80c-44.112,0 -80,35.888 -80,80c0,44.112 35.888,80 80,80c44.112,0 80,-35.888 80,-80c0,-44.112 -35.888,-80 -80,-80Zm0,128c-26.467,0 -48,-21.533 -48,-48c0,-26.467 21.533,-48 48,-48c26.467,0 48,21.533 48,48c0,26.467 -21.533,48 -48,48Z" style="fill:#ffbf07;fill-rule:nonzero;"/><path d="M352,53c8.836,0 16,-7.164 16,-16l0,-21c0,-8.836 -7.164,-16 -16,-16c-8.836,0 -16,7.164 -16,16l0,21c0,8.836 7.164,16 16,16Z" style="fill:#ffbf07;fill-rule:nonzero;"/><path d="M352,267c-8.836,0 -16,7.164 -16,16l0,21c0,8.836 7.164,16 16,16c8.836,0 16,-7.164 16,-16l0,-21c0,-8.836 -7.164,-16 -16,-16Z" style="fill:#ffbf07;fill-rule:nonzero;"/><path d="M245,160c0,-8.836 -7.164,-16 -16,-16l-21,0c-8.836,0 -16,7.164 -16,16c0,8.836 7.164,16 16,16l21,0c8.836,0 16,-7.164 16,-16Z" style="fill:#ffbf07;fill-rule:nonzero;"/><path d="M496,144l-21,0c-8.836,0 -16,7.164 -16,16c0,8.836 7.164,16 16,16l21,0c8.836,0 16,-7.164 16,-16c0,-8.836 -7.164,-16 -16,-16Z" style="fill:#ffbf07;fill-rule:nonzero;"/><path d="M253.409,84.036c6.247,6.248 16.379,6.249 22.627,0c6.249,-6.248 6.249,-16.379 0,-22.627l-14.546,-14.546c-6.248,-6.249 -16.379,-6.249 -22.627,0c-6.249,6.248 -6.249,16.379 0,22.627l14.546,14.546Z" style="fill:#ffbf07;fill-rule:nonzero;"/><path d="M450.591,235.964c-6.248,-6.249 -16.379,-6.249 -22.627,0c-6.249,6.248 -6.249,16.379 0,22.627l14.546,14.546c3.124,3.125 7.219,4.687 11.313,4.687c14.126,0 21.421,-17.206 11.313,-27.313l-14.545,-14.547Z" style="fill:#ffbf07;fill-rule:nonzero;"/><path d="M253.409,235.964l-14.546,14.546c-6.249,6.248 -6.249,16.379 0,22.627c6.247,6.248 16.379,6.249 22.627,0l14.546,-14.546c6.249,-6.248 6.249,-16.379 0,-22.627c-6.248,-6.249 -16.379,-6.249 -22.627,0Z" style="fill:#ffbf07;fill-rule:nonzero;"/><path d="M439.277,88.723c4.095,0 8.189,-1.562 11.313,-4.687l14.546,-14.546c6.249,-6.248 6.249,-16.379 0,-22.627c-6.248,-6.249 -16.379,-6.249 -22.627,0l-14.546,14.546c-10.109,10.109 -2.811,27.314 11.314,27.314Z" style="fill:#ffbf07;fill-rule:nonzero;"/></g></svg>