<?xml version="1.0" encoding="UTF-8" standalone="no"?><!DOCTYPE svg PUBLIC "-//W3C//DTD SVG 1.1//EN" "http://www.w3.org/Graphics/SVG/1.1/DTD/svg11.dtd"><svg width="100%" height="100%" viewBox="0 0 512 512" version="1.1" xmlns="http://www.w3.org/2000/svg" xmlns:xlink="http://www.w3.org/1999/xlink" xml:space="preserve" xmlns:serif="http://www.serif.com/" style="fill-rule:evenodd;clip-rule:evenodd;stroke-linejoin:round;stroke-miterlimit:2;"><g id="min"><path d="M112,379.35l0,-51.35c0,-8.836 -7.164,-16 -16,-16c-8.836,0 -16,7.164 -16,16l0,51.35c-14.113,6.185 -24,20.281 -24,36.65c0,22.056 17.944,40 40,40c22.056,0 40,-17.944 40,-40c0,-16.369 -9.887,-30.465 -24,-36.65Z" style="fill:#ffbf07;fill-rule:nonzero;"/><path d="M160,344.436l0,-280.436c0,-35.29 -28.71,-64 -64,-64c-35.29,-0 -64,28.71 -64,64l0,280.436c-20.434,18.205 -32,43.858 -32,71.564c0,52.935 43.065,96 96,96c52.935,0 96,-43.065 96,-96c0,-27.706 -11.566,-53.359 -32,-71.564Zm-64,135.564c-35.29,0 -64,-28.71 -64,-64c0,-20.317 9.334,-38.982 25.61,-51.208c4.023,-3.022 6.39,-7.761 6.39,-12.792l0,-288c0,-17.645 14.355,-32 32,-32c17.645,0 32,14.355 32,32l0,287.999c0,5.032 2.367,9.771 6.39,12.792c16.276,12.227 25.61,30.892 25.61,51.209c0,35.29 -28.71,64 -64,64Z" style="fill:#ffbf07;fill-rule:nonzero;"/><path d="M496,144l-25.373,0l12.687,-12.687c6.249,-6.248 6.249,-16.379 0,-22.627c-6.248,-6.249 -16.379,-6.249 -22.627,0l-35.313,35.314l-19.715,0c-2.54,-8.501 -7.048,-16.155 -12.994,-22.442l9.874,-17.101l48.243,-12.926c8.536,-2.287 13.602,-11.061 11.314,-19.596c-2.287,-8.534 -11.058,-13.601 -19.596,-11.314l-17.332,4.644l12.689,-21.976c4.417,-7.653 1.795,-17.438 -5.858,-21.856c-7.651,-4.417 -17.438,-1.796 -21.856,5.858l-12.686,21.971l-4.643,-17.328c-2.287,-8.535 -11.058,-13.602 -19.596,-11.314c-8.536,2.287 -13.602,11.061 -11.314,19.596l12.925,48.236l-9.861,17.079c-8.575,-2.042 -17.35,-2.044 -25.935,-0l-9.861,-17.079l12.925,-48.236c2.287,-8.535 -2.778,-17.309 -11.313,-19.596c-8.536,-2.288 -17.309,2.778 -19.597,11.313l-4.643,17.327l-12.686,-21.972c-4.419,-7.653 -14.204,-10.276 -21.856,-5.858c-7.653,4.417 -10.275,14.203 -5.858,21.856l12.69,21.977l-17.331,-4.644c-8.538,-2.288 -17.31,2.779 -19.596,11.313c-2.287,8.536 2.778,17.309 11.313,19.596l48.244,12.927l9.874,17.1c-5.946,6.287 -10.455,13.94 -12.994,22.442l-19.714,0l-35.313,-35.313c-6.248,-6.249 -16.379,-6.249 -22.627,0c-6.249,6.248 -6.249,16.379 0,22.627l12.683,12.689l-25.373,0c-8.836,0 -16,7.164 -16,16c0,8.836 7.164,16 16,16l25.373,0l-12.686,12.687c-10.11,10.108 -2.812,27.313 11.313,27.313c4.095,0 8.189,-1.562 11.313,-4.687l35.314,-35.313l19.714,0c2.54,8.501 7.048,16.155 12.994,22.442l-9.873,17.1l-48.244,12.927c-8.536,2.287 -13.601,11.06 -11.313,19.596c2.286,8.535 11.051,13.601 19.596,11.313l17.332,-4.644l-12.69,21.978c-6.185,10.717 1.655,24.002 13.843,24.002c5.529,0 10.908,-2.871 13.872,-8.004l12.686,-21.972l4.643,17.327c1.916,7.149 8.38,11.863 15.445,11.863c10.52,0 18.187,-9.988 15.465,-20.145l-12.925,-48.235l9.861,-17.079c8.575,2.042 17.35,2.044 25.935,0l9.861,17.079l-12.924,48.236c-2.723,10.161 4.949,20.145 15.465,20.145c7.064,0 13.529,-4.715 15.445,-11.863l4.642,-17.327l12.686,21.971c2.964,5.134 8.342,8.004 13.872,8.004c12.175,0 20.035,-13.273 13.843,-24.002l-12.689,-21.976l17.333,4.644c8.532,2.289 17.308,-2.778 19.596,-11.313c2.287,-8.536 -2.778,-17.309 -11.314,-19.596l-48.244,-12.927l-9.874,-17.101c5.946,-6.287 10.455,-13.94 12.994,-22.442l19.716,0l35.313,35.313c3.124,3.125 7.219,4.687 11.313,4.687c14.125,0 21.424,-17.205 11.313,-27.313l-12.687,-12.688l25.372,0c8.837,0 16,-7.164 16,-16c0,-8.836 -7.163,-16 -16,-16Zm-168,16c-0,-13.234 10.767,-24 24,-24c13.233,0 24,10.766 24,24c-0,13.234 -10.767,24 -24,24c-13.233,0 -24,-10.766 -24,-24Z" style="fill:#ffbf07;fill-rule:nonzero;"/></g></svg>