<?xml version="1.0" encoding="UTF-8" standalone="no"?><!DOCTYPE svg PUBLIC "-//W3C//DTD SVG 1.1//EN" "http://www.w3.org/Graphics/SVG/1.1/DTD/svg11.dtd"><svg width="100%" height="100%" viewBox="0 0 512 512" version="1.1" xmlns="http://www.w3.org/2000/svg" xmlns:xlink="http://www.w3.org/1999/xlink" xml:space="preserve" xmlns:serif="http://www.serif.com/" style="fill-rule:evenodd;clip-rule:evenodd;stroke-linejoin:round;stroke-miterlimit:2;"><g id="wind"><path d="M296,312l-216,0c-8.836,0 -16,7.164 -16,16c0,8.836 7.164,16 16,16l216,0c22.158,0 40,17.944 40,40c0,35.761 -43.299,53.248 -68.292,28.281c-6.252,-6.245 -16.382,-6.24 -22.627,0.011c-6.245,6.251 -6.24,16.382 0.011,22.627c13.608,13.595 31.687,21.081 50.908,21.081c39.701,0 72,-32.299 72,-72c0,-39.806 -32.225,-72 -72,-72Z" style="fill:#ffbf07;fill-rule:nonzero;"/><path d="M48,216l160,0c35.353,0 64,-28.6 64,-64c0,-35.29 -28.71,-64 -64,-64c-17.107,0 -33.181,6.66 -45.26,18.753c-6.245,6.251 -6.239,16.382 0.013,22.627c6.252,6.246 16.383,6.24 22.627,-0.013c6.034,-6.04 14.067,-9.367 22.62,-9.367c28.663,0 42.576,34.699 22.62,54.633c-6.034,6.04 -14.067,9.367 -22.62,9.367l-160,0c-8.836,0 -16,7.164 -16,16c0,8.836 7.164,16 16,16Z" style="fill:#ffbf07;fill-rule:nonzero;"/><path d="M420.969,279.204c50.532,-6.247 91.031,-49.377 91.031,-103.204c0,-57.346 -46.654,-104 -104,-104c-27.784,0 -53.9,10.821 -73.537,30.469c-6.247,6.25 -6.244,16.381 0.006,22.627c6.25,6.246 16.381,6.244 22.627,-0.006c13.593,-13.6 31.671,-21.09 50.904,-21.09c39.701,0 72,32.299 72,72c0,39.774 -32.2,72 -72,72l-392,0c-8.836,0 -16,7.164 -16,16c0,8.836 7.164,16 16,16c428.098,0 401.176,0.442 404.969,-0.796Z" style="fill:#ffbf07;fill-rule:nonzero;"/><path d="M56,128c4.095,0 8.189,-1.562 11.313,-4.687l11.314,-11.313l17.373,0c39.701,0 72,-32.299 72,-72l0,-24c0,-8.836 -7.164,-16 -16,-16l-24,0c-39.701,0 -72,32.299 -72,72l0,17.373l-11.313,11.313c-10.11,10.109 -2.812,27.314 11.313,27.314Zm32,-56c0,-22.056 17.944,-40 40,-40l8,0l0,8c0,22.056 -17.944,40 -40,40l-8,0l0,-8Z" style="fill:#ffbf07;fill-rule:nonzero;"/><path d="M132.687,388.687l-11.314,11.313l-17.373,0c-39.701,0 -72,32.299 -72,72l0,24c0,8.836 7.164,16 16,16l24,0c39.701,0 72,-32.299 72,-72l0,-17.373l11.313,-11.313c6.249,-6.248 6.249,-16.379 0,-22.627c-6.248,-6.249 -16.378,-6.249 -22.626,0Zm-20.687,51.313c0,22.056 -17.944,40 -40,40l-8,0l0,-8c0,-22.056 17.944,-40 40,-40l8,0l0,8Z" style="fill:#ffbf07;fill-rule:nonzero;"/><path d="M440,336l-17.373,0l-11.313,-11.313c-6.248,-6.249 -16.379,-6.249 -22.627,0c-6.249,6.248 -6.249,16.379 0,22.627l11.313,11.313l0,17.373c0,39.701 32.299,72 72,72l24,0c8.836,0 16,-7.164 16,-16l0,-24c0,-39.701 -32.299,-72 -72,-72Zm40,80l-8,0c-22.056,0 -40,-17.944 -40,-40l0,-8l8,0c22.056,0 40,17.944 40,40l0,8Z" style="fill:#ffbf07;fill-rule:nonzero;"/></g></svg>